<?xml version="1.0" encoding="UTF-8"?>
<!-- Generator: Adobe Illustrator 22.1.0, SVG Export Plug-In . SVG Version: 6.00 Build 0)  -->
<svg xmlns="http://www.w3.org/2000/svg" xmlns:xlink="http://www.w3.org/1999/xlink" version="1.1" id="Livello_1" x="0px" y="0px" viewBox="0 0 850.4 150.2" style="enable-background:new 0 0 850.4 150.2;" xml:space="preserve">
<style type="text/css">
	.st0{fill:#83AFDF;}
	.st1{clip-path:url(#SVGID_2_);fill:#83AFDF;}
	.st2{clip-path:url(#SVGID_2_);fill:#52545A;}
	.st3{clip-path:url(#SVGID_2_);fill:#8084AD;}
	.st4{clip-path:url(#SVGID_2_);fill:#A8C7EB;}
	.st5{clip-path:url(#SVGID_2_);fill:#C4D6F0;}
	.st6{clip-path:url(#SVGID_2_);fill:#9E9FA6;}
	.st7{clip-path:url(#SVGID_2_);fill:#24356C;}
	.st8{clip-path:url(#SVGID_2_);fill:#3F94D3;}
</style>
<polygon class="st0" points="662.2,103.2 652.2,103.2 652.2,55.5 634.6,55.5 634.6,47 679.7,47 679.7,55.5 662.2,55.5 "></polygon>
<polygon class="st0" points="726.3,103.2 686.8,103.2 686.8,47 725.1,47 725.1,55.5 696.8,55.5 696.8,70.7 721.9,70.7 721.9,79   696.8,79 696.8,94.7 726.3,94.7 "></polygon>
<g>
	<defs>
		<rect id="SVGID_1_" width="850.4" height="150.2"></rect>
	</defs>
	<clipPath id="SVGID_2_">
		<use xlink:href="#SVGID_1_" style="overflow:visible;"></use>
	</clipPath>
	<path class="st1" d="M762.2,104c-17.2,0-30.2-12.4-30.2-28.8c0-16.4,13.1-28.8,30.5-28.8c10.4,0,18.4,3.7,23.9,10.9l0.2,0.3   l-7.7,5.1l-0.2-0.3c-4-5.1-9.1-7.4-16.4-7.4c-11.5,0-19.8,8.5-19.8,20.2c0,11.7,8.5,20.2,20.2,20.2c7.4,0,13-2.5,17.4-7.9l0.2-0.3   l7.8,5.1l-0.3,0.3C781.4,100.4,773.5,104,762.2,104"></path>
	<polygon class="st1" points="843.3,103.2 833.3,103.2 833.3,80.1 805.8,80.1 805.8,103.2 795.7,103.2 795.7,47 805.8,47    805.8,71.6 833.3,71.6 833.3,47 843.3,47  "></polygon>
	<path class="st2" d="M154.1,103.8c-18.4,0-31.7-12-31.7-28.6c0-16.3,13.1-28.6,30.4-28.6c9.6,0,16.8,2.8,22.5,8.8l0.3,0.3l-6.9,6.2   l-0.3-0.3c-3.8-4-7.8-6.4-15.8-6.4c-11.5,0-19.8,8.4-19.8,20c0,11.8,8.8,20,21.4,20c5.6,0,10.2-1.1,13.8-3.3V81.5h-15.7V73h24.9   v23.4l-0.1,0.1C173,99.7,166.3,103.8,154.1,103.8"></path>
	<path class="st2" d="M231.5,103.1h-11l-0.1-0.2l-13-20.1h-10.1v20.3h-10V47.4h19.1c13.5,0,21.9,6.8,21.9,17.8   c0,7.6-4,13.2-11.2,15.9L231.5,103.1z M197.4,74.6h8.8c8.2,0,11.9-2.9,11.9-9.4s-3.7-9.4-11.9-9.4h-8.8V74.6z"></path>
	<polygon class="st2" points="286.3,103.1 275.7,103.1 275.6,102.9 259.6,66.6 243.4,103.1 233.2,103.1 233.5,102.6 259.2,46.3    260.2,46.3 260.3,46.5  "></polygon>
	<polygon class="st2" points="341,103.9 339.8,103.9 339.7,103.8 302.8,67.5 302.8,103.1 293.5,103.1 293.5,46.6 294.7,46.6    294.8,46.7 331.6,83 331.6,47.4 341,47.4  "></polygon>
	<polygon class="st2" points="462,103.2 451.4,103.2 451.3,102.9 435.3,66.6 419.1,103.2 408.9,103.2 409.2,102.6 434.9,46.2    435.9,46.2 436,46.4  "></polygon>
	<path class="st2" d="M385.9,103.9c-9.5,0-17.1-4.2-21.4-11.8l-0.2-0.4l8.4-4l0.2,0.3c2.6,4.7,7.1,7.3,12.9,7.3c6,0,9.9-2.7,9.9-6.8   c0-4.7-3.6-6.6-9.1-9l-4-1.7c-8.9-3.7-14.8-7.9-14.8-16.5c0-8.7,7.1-14.7,17.2-14.7c8.1,0,13.7,2.8,17.5,8.8l0.2,0.3l-7.6,4.7   l-0.2-0.3c-2.2-3.5-5.3-5.2-9.7-5.2c-4.6,0-7.6,2.4-7.6,6c0,4,2.5,5.5,9.1,8.2l4,1.7c9.5,4,15,8.1,15,17.4   C405.6,97.9,398.1,103.9,385.9,103.9"></path>
	<path class="st2" d="M486.2,103.9c-9.5,0-17.1-4.2-21.4-11.8l-0.2-0.4l8.4-4l0.2,0.3c2.6,4.7,7.1,7.3,12.9,7.3c6,0,9.9-2.7,9.9-6.8   c0-4.7-3.6-6.6-9.1-9l-4-1.7c-8.9-3.7-14.8-7.9-14.8-16.5c0-8.7,7.1-14.7,17.2-14.7c8.1,0,13.7,2.8,17.5,8.8l0.2,0.3l-7.6,4.7   l-0.2-0.3c-2.2-3.5-5.3-5.2-9.7-5.2c-4.6,0-7.6,2.4-7.6,6c0,4,2.5,5.5,9.1,8.2l4,1.7c9.5,4,15,8.1,15,17.4   C505.9,97.9,498.3,103.9,486.2,103.9"></path>
	<path class="st2" d="M531.8,103.9c-9.5,0-17.1-4.2-21.4-11.8l-0.2-0.4l8.4-4l0.2,0.3c2.6,4.7,7.1,7.3,12.9,7.3c6,0,9.9-2.7,9.9-6.8   c0-4.7-3.6-6.6-9.1-9l-4-1.7c-8.9-3.7-14.8-7.9-14.8-16.5c0-8.7,7.1-14.7,17.2-14.7c8.1,0,13.7,2.8,17.5,8.8l0.2,0.3l-7.6,4.7   l-0.2-0.3c-2.2-3.5-5.3-5.2-9.7-5.2c-4.6,0-7.6,2.4-7.6,6c0,4,2.5,5.5,9.1,8.2l4,1.7c9.5,4,15,8.1,15,17.4   C551.5,97.9,544,103.9,531.8,103.9"></path>
	<path class="st2" d="M587.8,103.9c-17.4,0-30.6-12.3-30.6-28.6c0-16.3,13.1-28.6,30.6-28.6c17.4,0,30.6,12.3,30.6,28.6   C618.4,91.6,605.2,103.9,587.8,103.9 M587.8,55.2c-11.7,0-20.3,8.4-20.3,20c0,11.6,8.5,20,20.3,20c11.7,0,20.3-8.4,20.3-20   C608,63.7,599.5,55.2,587.8,55.2"></path>
	<path class="st3" d="M68.6,132c-0.5-0.7-1.8-2.4-4.7-2.4c-14.9,1.5-28.3,0.3-38-4.1c-7.2-3.3-11.7-7.9-13.7-13.6l2.6,6.7l0.9,2   c2.2,4.8,6.5,8.9,13,11.8c9.8,4.4,23.1,5.6,38.1,4.1C70.7,135.7,68.6,132,68.6,132"></path>
	<path class="st4" d="M48,95.5c-0.2-0.8-1-2.8-3.3-3c-9.2,0.1-17.3-1.2-23.7-4.1c-10.3-4.6-14.3-12.6-12.6-22   C8,69,7.5,72.5,7.3,75.2l0,0.4c-0.6,8.6,3.8,15.9,13.5,20.3c6.7,3,15.2,4.4,24.7,4.3C48.5,99.8,48.3,96.6,48,95.5"></path>
	<path class="st5" d="M99.9,111.1c-0.5-0.7-1.9-2.3-4.9-1.6c-27.9,9.4-55.6,11.5-72.4,3.9c-8.4-3.8-13-9.6-14.2-16.5l1.2,6l0.8,3   c1.7,6.1,6.3,11.2,14,14.7c17,7.7,45.2,5.6,73.5-4C102.1,114.8,99.9,111.2,99.9,111.1"></path>
	<path class="st4" d="M52.2,143.9c-0.5-0.7-1.9-2.3-4.4-2.7c-6.3-0.7-12-2.1-16.8-4.2c-5.9-2.7-9.9-6.3-12.3-10.5   c1.3,2.1,2.9,5,4.3,7l0.5,0.8c2.4,3.5,6.1,6.5,11.1,8.8c4.8,2.2,10.4,3.5,16.6,4.2C54.1,147.2,52.8,144.8,52.2,143.9"></path>
	<path class="st6" d="M106.6,94.2c-0.5-0.7-2-2.2-4.8-1.3c-30.4,12.6-62.4,16.4-80.8,8.1C11.5,96.7,7.1,89.9,7.1,81.7   c0.1,2.7,0.2,6.3,0.4,9c0.7,7.5,5.3,13.7,14.2,17.7c18.9,8.6,51.9,4.6,83.2-8.3C108.4,98.2,107.3,95.2,106.6,94.2"></path>
	<path class="st7" d="M14.8,118.6l-2.6-6.7c-5.3-15.2,8-37.2,36.8-56.7c25.5-17.3,57-28.4,83.2-30.8c4.6,0,6.3,4.3,4.8,5.9   c-0.4,0.4-1.2,0.6-1.7,0.8C109,33.5,77.5,44.6,51.9,62c-30,20.3-43.2,43.4-36.2,58.7L14.8,118.6z"></path>
	<path class="st7" d="M144.1,26.9c-0.4-1.1-0.4-2.9,1.9-2.9c3.7,0.3,6.4,4.7,4.7,6.3C149.2,31.8,145.1,29.8,144.1,26.9"></path>
	<path class="st8" d="M7.3,75.2C7.6,72.5,8,69,8.4,66.3c2.1-12,13.5-26.5,32.9-39.7C54.4,17.8,69.3,10.8,84,6c3.9-1,5.8,0.9,4.6,2.6   c-0.5,0.8-1.4,1.1-2.1,1.4C71.2,15,55.6,22.3,42,31.5C20.2,46.3,8.2,62.6,7.3,75.6L7.3,75.2z"></path>
	<path class="st8" d="M91.7,5.8c-0.3-0.6-0.2-1.9,2.2-2.6c3.5-0.8,6.2,1,5.1,2.7C97.6,7.9,92.7,7.8,91.7,5.8"></path>
	<path class="st1" d="M9.6,103.1l-1.2-6C5.9,82.4,19,62.5,45.2,44.7c11-7.5,23.2-13.8,35.6-18.7c4.6-1.4,6.2,1.8,5,3.9   c-0.6,1.1-1.5,1.6-2.3,2c-12.6,5-24.9,11.4-36.1,19C19.5,69.8,6.3,91,10.4,106L9.6,103.1z"></path>
	<path class="st8" d="M23,133.5c-1.3-2.1-3.1-4.9-4.3-7c-7.7-14,2.9-35.4,28.9-55c3.6-2.2,6,1.1,5.2,4.1c-0.4,1.4-1.1,2.1-1.7,2.7   c-26.7,20.2-37,42.2-27.5,56L23,133.5z"></path>
	<path class="st8" d="M57.5,68.4c-0.4-1.1-0.5-3.7,2.1-5.4c3.5-1.9,6.4,0.8,5.6,4c-0.9,3.7-5.5,5-7.3,2.1   C57.8,68.9,57.6,68.6,57.5,68.4"></path>
	<path class="st8" d="M70.7,60.5c-0.4-1.2-0.4-3.6,2.3-5.2c3.8-1.7,6.8,1.5,5.5,4.7c-1.4,3.5-6.2,4-7.7,0.8   C70.8,60.8,70.8,60.7,70.7,60.5"></path>
	<path class="st2" d="M7.1,81.7c0-13.6,12.5-31,35.6-46.6c5.4-3.7,11.1-7.1,17-10.1c3.7-1.6,5.1,0.7,4.4,2.5c-0.5,1.5-2,2.4-2.6,2.7   c-6,3.1-11.9,6.6-17.5,10.4C19.1,57.6,6.2,76.5,7.5,90.7C7.4,88,7.1,84.4,7.1,81.7"></path>
	<path class="st2" d="M69.6,22.9c-0.2-0.9,0.1-2.7,2.7-3.9c3.6-1.4,5.9,0.6,4.8,3c-1.4,2.9-6.4,3.7-7.4,1.2   C69.6,23.1,69.6,23,69.6,22.9"></path>
	<path class="st2" d="M83.1,17.4c-0.3-0.8-0.1-2.5,2.6-3.5c3.6-1.1,6.2,1,5.1,3.1C89.5,19.8,84,20.1,83.1,17.4"></path>
	<path class="st2" d="M96.7,13.1c-0.3-0.8-0.2-2.4,2.4-3.1c3.7-0.8,6.5,1.6,5.3,3.5C102.9,15.8,97.7,15.5,96.7,13.1"></path>
	<path class="st2" d="M110,10c-0.4-0.8-0.4-2.2,2.1-2.7c3.8-0.5,6.8,2.2,5.4,3.9C116,13,111.2,12.2,110,10"></path>
	<path class="st1" d="M91,25.8c-0.3-1-0.1-2.9,2.6-3.9c3.9-1.1,6.7,1.7,5.3,4.2C97.3,28.9,92,28.7,91,25.8"></path>
	<path class="st1" d="M103.4,22.1c-0.4-1-0.2-2.8,2.5-3.6c3.9-0.8,6.7,2.1,5.4,4.4C109.7,25.5,104.5,24.9,103.4,22.1"></path>
</g>
</svg>
